<?xml version="1.0" encoding="utf-8"?>
<!-- Generator: Adobe Illustrator 16.0.0, SVG Export Plug-In . SVG Version: 6.00 Build 0)  -->
<!DOCTYPE svg PUBLIC "-//W3C//DTD SVG 1.1//EN" "http://www.w3.org/Graphics/SVG/1.1/DTD/svg11.dtd">
<svg version="1.1" id="Layer_1" xmlns="http://www.w3.org/2000/svg" xmlns:xlink="http://www.w3.org/1999/xlink" x="0px" y="0px"
	 width="100px" height="100px" viewBox="0 0 100 100" enable-background="new 0 0 100 100" xml:space="preserve">
<g id="Captions">
</g>
<g id="Your_Icon">
	<path fill="#FFFFFF" stroke="#BDD630" stroke-miterlimit="10" d="M49.607,5.587c-24.391,0-44.165,19.773-44.165,44.166
		c0,24.39,19.774,44.165,44.165,44.165c24.392,0,44.167-19.773,44.167-44.165C93.773,25.36,73.999,5.587,49.607,5.587z
		 M69.611,67.577c-2.952,3.065-5.139,4.248-7.096,3.825c-2.313-0.494-3.205-2.971-3.994-5.153c-0.822-2.285-1.445-3.785-2.56-3.798
		l-0.176-0.002c-2.541-0.028-3.453-0.008-4.142,0.615c-0.801,0.727-1.657,2.479-2.76,5.064l-0.36,1.188
		c-0.086,0.283-0.24,0.526-0.438,0.718c-0.021,0.054-0.043,0.104-0.064,0.157c-0.746,1.802-1.848,2.928-3.271,3.345
		c-2.633,0.771-5.423-1.164-7.883-2.872c-1.093-0.758-3.119-2.18-3.732-2.055c0.014,0.007-0.643,0.629-0.641,4.24
		c0,0.928-0.753,1.682-1.682,1.682s-1.681-0.754-1.681-1.682c-0.001-2.765,0.281-6.082,2.474-7.23
		c2.218-1.157,4.628,0.513,7.179,2.283c1.657,1.152,3.928,2.729,5.018,2.408c0.5-0.146,0.881-0.846,1.113-1.404
		c0.28-0.68,0.545-1.313,0.799-1.902l5.112-16.812c-4.473-0.065-7.458,0.806-8.432,2.414c-0.996,1.64,0.227,3.912,0.238,3.936
		c0.444,0.813,0.153,1.833-0.656,2.282c-0.81,0.448-1.824,0.165-2.277-0.642c-0.091-0.16-2.188-3.969-0.196-7.293
		c1.688-2.818,5.653-4.182,11.783-4.051c0.188,0.003,0.374,0.008,0.558,0.011l1.207-3.977c-5.866-0.592-10.449-5.658-10.449-11.824
		c0-6.563,5.194-11.883,11.602-11.883c6.405,0,11.601,5.32,11.601,11.883c0,5.711-3.935,10.476-9.176,11.619l-1.293,4.25
		c4.133,0.071,5.805,0.07,6.475,0.056l0.008-0.137c0.557-0.004,3.438-0.265,3.438-4.944c0-0.928,0.755-1.681,1.683-1.681
		c0.929,0,1.681,0.753,1.681,1.681c0,2.763-0.767,4.915-2.279,6.399c-0.899,0.884-1.897,1.359-2.733,1.613
		c-0.602,0.444-1.691,0.438-3.223,0.437c-1.375-0.004-3.408-0.032-6.063-0.082l-2.783,9.15c1.107-0.298,2.471-0.343,4.286-0.322
		L56,59.09c3.532,0.04,4.775,3.495,5.688,6.02c0.365,1.015,1.045,2.901,1.533,3.007c0.041,0.013,1.032,0.179,3.969-2.869
		c0.646-0.671,1.711-0.688,2.377-0.045C70.234,65.844,70.255,66.909,69.611,67.577z"/>
</g>
</svg>
